<svg width="109" height="96" viewBox="0 0 109 96" fill="none" xmlns="http://www.w3.org/2000/svg"  fill="#9CA3AF">
<path d="M26.6288 68.069C26.6288 68.9994 25.8746 69.7537 24.9442 69.7537H24.4951C23.5647 69.7537 22.8104 68.9994 22.8104 68.069C22.8104 67.1386 23.5647 66.3843 24.4951 66.3843H24.9442C25.8746 66.3843 26.6288 67.1386 26.6288 68.069ZM16.2806 52.5715H15.8318C14.9014 52.5715 14.1471 53.3258 14.1471 54.2562C14.1471 55.1866 14.9014 55.9409 15.8318 55.9409H16.2806C17.2111 55.9409 17.9653 55.1866 17.9653 54.2562C17.9653 53.3258 17.2113 52.5715 16.2806 52.5715ZM32.562 38.9753H32.1127C31.1822 38.9753 30.428 39.7295 30.428 40.66C30.428 41.5904 31.1822 42.3446 32.1127 42.3446H32.562C33.4924 42.3446 34.2467 41.5904 34.2467 40.66C34.2467 39.7293 33.4924 38.9753 32.562 38.9753ZM42.9217 16.9117H42.4731C41.5427 16.9117 40.7885 17.6659 40.7885 18.5963C40.7885 19.5267 41.5427 20.281 42.4731 20.281H42.9217C43.8522 20.281 44.6064 19.5267 44.6064 18.5963C44.6064 17.6662 43.8522 16.9117 42.9217 16.9117ZM63.8285 35.7361C63.8285 32.7603 66.2501 30.3392 69.2262 30.3392C72.202 30.3392 74.6231 32.7603 74.6231 35.7361C74.6231 38.7122 72.202 41.1333 69.2262 41.1333C66.2498 41.1331 63.8285 38.712 63.8285 35.7361ZM67.1978 35.7361C67.1978 36.8543 68.1075 37.764 69.2262 37.764C70.3443 37.764 71.2538 36.8543 71.2538 35.7361C71.2538 34.618 70.3443 33.7085 69.2262 33.7085C68.1075 33.7083 67.1978 34.618 67.1978 35.7361ZM30.9067 31.1031C30.9067 34.0792 28.4853 36.5003 25.5092 36.5003C22.5332 36.5003 20.1118 34.0792 20.1118 31.1031C20.1118 28.127 22.5332 25.7059 25.5092 25.7059C28.4853 25.7059 30.9067 28.127 30.9067 31.1031ZM27.5373 31.1031C27.5373 29.9849 26.6276 29.0752 25.5092 29.0752C24.3909 29.0752 23.4811 29.9849 23.4811 31.1031C23.4811 32.2212 24.3909 33.1309 25.5092 33.1309C26.6276 33.1309 27.5373 32.2212 27.5373 31.1031ZM18.0998 38.9753H17.6508C16.7203 38.9753 15.9661 39.7295 15.9661 40.66C15.9661 41.5904 16.7203 42.3446 17.6508 42.3446H18.0998C19.0303 42.3446 19.7845 41.5904 19.7845 40.66C19.7845 39.7293 19.0303 38.9753 18.0998 38.9753ZM51.2527 20.281H51.7017C52.6322 20.281 53.3864 19.5267 53.3864 18.5963C53.3864 17.6659 52.6322 16.9117 51.7017 16.9117H51.2527C50.3222 16.9117 49.568 17.6659 49.568 18.5963C49.568 19.527 50.3222 20.281 51.2527 20.281ZM87.2073 66.354C87.4543 66.4813 87.7183 66.5417 87.9782 66.5417C88.5885 66.5417 89.1774 66.2089 89.4768 65.6291L89.6826 65.2301C90.1091 64.4032 89.7849 63.3871 88.9577 62.9604C88.1308 62.5337 87.1149 62.8586 86.6882 63.6853L86.4824 64.0843C86.056 64.9112 86.3804 65.9273 87.2073 66.354ZM71.247 85.5643C71.6935 86.338 71.4569 87.3188 70.7241 87.8073C70.6718 87.8461 70.6172 87.8819 70.5594 87.9151C63.4513 92.0098 55.3346 94.1739 47.087 94.1739C38.5818 94.1739 30.5953 91.9066 23.7011 87.9457C23.6477 87.9219 23.5952 87.8952 23.5435 87.8653C23.4901 87.8345 23.4388 87.8011 23.3902 87.7654C9.41032 79.5907 0 64.4174 0 47.0872C0 29.7565 9.41008 14.5835 23.3899 6.40848C23.4388 6.37286 23.4901 6.33941 23.5437 6.30836C23.5957 6.27852 23.6484 6.25156 23.7016 6.22798C30.5957 2.26708 38.582 0 47.0872 0C55.5924 0 63.5787 2.26684 70.4726 6.22774C70.5262 6.25156 70.5787 6.27828 70.6304 6.30836C70.6841 6.33917 70.7351 6.37262 70.784 6.40824C84.7641 14.5832 94.1744 29.7565 94.1744 47.0867V47.087C94.1744 48.0174 93.4202 48.7716 92.4897 48.7716H54.2235C54.2117 48.7716 54.1999 48.7716 54.1883 48.7714H49.9988L51.999 52.2507C52.0406 52.3058 52.0791 52.3641 52.1145 52.4254L71.247 85.5643ZM67.4029 85.8071L45.6266 47.9264C45.327 47.4051 45.3277 46.7635 45.629 46.2429C45.9301 45.7224 46.486 45.402 47.0872 45.402H83.8755C83.4151 35.3208 78.8379 25.8532 71.1582 19.2146C70.4543 18.6062 70.377 17.5422 70.9854 16.8383C71.5941 16.1341 72.6573 16.0566 73.3618 16.6655C81.7827 23.9449 86.7854 34.3403 87.248 45.4018H90.7728C90.2077 30.5522 82.2003 17.5773 70.3826 10.1061L52.1143 41.7485C51.649 42.5542 50.6187 42.8305 49.8128 42.3651C49.007 41.8999 48.731 40.8696 49.1959 40.0638L64.0253 14.3777C58.8185 11.6793 52.9965 10.2596 47.0865 10.2596C42.7049 10.2596 38.4177 11.0213 34.3441 12.5236C33.4703 12.8456 32.5025 12.3987 32.1808 11.5258C31.8588 10.6529 32.3057 9.68419 33.1786 9.36218C37.6266 7.72204 42.3061 6.89029 47.0867 6.89029C53.5879 6.89029 59.9922 8.46474 65.7119 11.4569L67.4674 8.41636C61.3785 5.19431 54.442 3.36861 47.0867 3.36861C39.7315 3.36861 32.7947 5.19431 26.7058 8.4166L44.977 40.0641C45.4422 40.8698 45.166 41.9001 44.3602 42.3653C43.554 42.8308 42.5239 42.5545 42.0587 41.7487L27.231 16.065C18.353 21.7474 12.3684 30.8494 10.7162 41.2749C10.5706 42.1937 9.70682 42.8216 8.78843 42.6751C7.86957 42.5294 7.24263 41.6664 7.38823 40.7476C9.20021 29.3139 15.7834 19.3395 25.5446 13.1443L23.7909 10.1066C11.9734 17.5778 3.96619 30.5529 3.40135 45.4025H39.9509C40.8814 45.4025 41.6356 46.1568 41.6356 47.0872C41.6356 48.0176 40.8814 48.7719 39.9509 48.7719H10.2986C10.7641 59.0038 15.4535 68.5684 23.3262 75.2238C24.0366 75.8245 24.1257 76.8875 23.5249 77.598C22.9245 78.3084 21.8615 78.398 21.1508 77.797C12.519 70.4998 7.39329 59.9983 6.92615 48.7719H3.40135C3.96643 63.6215 11.9734 76.5961 23.7911 84.0673L42.0594 52.4249C42.5251 51.6192 43.5552 51.3432 44.3609 51.8084C45.1667 52.2736 45.4427 53.3039 44.9778 54.1096L30.1483 79.7955C35.3552 82.4943 41.1776 83.914 47.0874 83.914C51.4731 83.914 55.7632 83.1514 59.8387 81.647C60.7118 81.3249 61.6803 81.7714 62.0025 82.644C62.3245 83.5167 61.8781 84.4856 61.0052 84.8079C56.555 86.4507 51.8724 87.2836 47.0872 87.2836C40.5863 87.2836 34.1814 85.7089 28.4617 82.7162L26.7063 85.7571C32.7952 88.9791 39.7319 90.8051 47.0872 90.8051C54.1801 90.8048 61.1681 89.0812 67.4029 85.8071ZM83.1776 74.1545C83.4248 74.2823 83.689 74.3427 83.9492 74.3427C84.5593 74.3427 85.1479 74.0104 85.4476 73.4308L85.6536 73.0318C86.0803 72.2051 85.7566 71.1888 84.9297 70.7618C84.1025 70.3344 83.0871 70.6591 82.6597 71.4855L82.4537 71.8846C82.027 72.7112 82.3509 73.7276 83.1776 74.1545ZM77.0103 66.0289C77.2574 66.1567 77.5217 66.2171 77.7821 66.2171C78.3922 66.2171 78.9809 65.8847 79.2803 65.3052L79.4863 64.9062C79.9132 64.0795 79.5895 63.0634 78.7628 62.6362C77.9369 62.2093 76.92 62.5332 76.4928 63.3596L76.2868 63.7587C75.8599 64.5856 76.1838 65.6019 77.0103 66.0289ZM108.035 54.9481C108.035 63.3755 105.782 71.6446 101.519 78.862C97.3813 85.8668 91.4683 91.716 84.4199 95.7765C84.1619 95.9252 83.6493 96.0889 83.1408 95.9433C82.711 95.8203 82.3415 95.5438 82.1187 95.1563L59.488 55.7878C59.1884 55.2663 59.1891 54.6249 59.4905 54.1043C59.7915 53.5838 60.3475 53.2634 60.9487 53.2634H106.35C107.281 53.2634 108.035 54.0177 108.035 54.9481ZM104.633 56.6328H63.86L80.7457 86.0071C89.3921 80.492 95.3445 71.6773 97.1796 61.578C97.3459 60.6627 98.22 60.0548 99.1386 60.2216C100.054 60.3879 100.661 61.2649 100.495 62.1804C98.4821 73.2573 91.9336 82.9182 82.4267 88.931L84.1831 91.9867C96.3835 84.3133 104.074 71.0186 104.633 56.6328ZM53.1595 75.7174H53.6086C54.539 75.7174 55.2932 74.9632 55.2932 74.0327C55.2932 73.1023 54.539 72.3481 53.6086 72.3481H53.1595C52.229 72.3481 51.4748 73.1023 51.4748 74.0327C51.4748 74.9632 52.229 75.7174 53.1595 75.7174ZM47.9851 74.7949C47.9851 77.771 45.5638 80.1921 42.5877 80.1921C39.6121 80.1921 37.191 77.771 37.191 74.7949C37.191 71.8188 39.6121 69.3977 42.5877 69.3977C45.5638 69.3975 47.9851 71.8188 47.9851 74.7949ZM44.6158 74.7949C44.6158 73.6768 43.7061 72.7671 42.5877 72.7671C41.4698 72.7671 40.5603 73.6768 40.5603 74.7949C40.5603 75.9131 41.4698 76.8228 42.5877 76.8228C43.7061 76.8226 44.6158 75.9131 44.6158 74.7949ZM44.8933 61.2278C44.8933 62.1582 45.6475 62.9125 46.5779 62.9125H47.0268C47.9572 62.9125 48.7115 62.1582 48.7115 61.2278C48.7115 60.2974 47.9572 59.5432 47.0268 59.5432H46.5779C45.6475 59.5432 44.8933 60.2974 44.8933 61.2278ZM46.8629 29.4892H47.3122C48.2426 29.4892 48.9969 28.7349 48.9969 27.8045C48.9969 26.8741 48.2426 26.1198 47.3122 26.1198H46.8629C45.9325 26.1198 45.1782 26.8741 45.1782 27.8045C45.1782 28.7349 45.9322 29.4892 46.8629 29.4892ZM33.47 57.0708C33.47 60.0469 31.0487 62.468 28.0726 62.468C25.0967 62.468 22.6756 60.0469 22.6756 57.0708C22.6756 54.0947 25.0967 51.6736 28.0726 51.6736C31.0489 51.6736 33.47 54.0947 33.47 57.0708ZM30.1007 57.0708C30.1007 55.9526 29.191 55.0429 28.0726 55.0429C26.9545 55.0429 26.045 55.9526 26.045 57.0708C26.045 58.1889 26.9545 59.0986 28.0726 59.0986C29.191 59.0984 30.1007 58.1889 30.1007 57.0708Z"/>
</svg>
